<svg width="16" height="16" viewBox="0 0 16 16" fill="none" xmlns="http://www.w3.org/2000/svg">
  <mask id="mask0_327_4271" style="mask-type:alpha" maskUnits="userSpaceOnUse" x="0" y="0" width="16" height="16">
    <rect width="16" height="16" fill="#D9D9D9"/>
  </mask>
  <g mask="url(#mask0_327_4271)">
    <path fill-rule="evenodd" clip-rule="evenodd" d="M1 11.9973V14.33H14.33V11.9973C14.33 11.5251 14.2084 11.0911 13.9651 10.6951C13.7224 10.2996 13.3997 9.99775 12.997 9.78947C12.1361 9.35902 11.2613 9.03605 10.3727 8.82054C9.48399 8.6056 8.58144 8.49813 7.665 8.49813C6.74856 8.49813 5.84601 8.6056 4.95734 8.82054C4.06868 9.03605 3.1939 9.35902 2.333 9.78947C1.93032 9.99775 1.60763 10.2996 1.36491 10.6951C1.12164 11.0911 1 11.5251 1 11.9973Z" fill="#4F4F4F"/>
    <path d="M7.665 7.665C6.74856 7.665 5.96404 7.33869 5.31142 6.68608C4.65881 6.03346 4.3325 5.24894 4.3325 4.3325C4.3325 3.41606 4.65881 2.63154 5.31142 1.97892C5.96404 1.32631 6.74856 1 7.665 1C8.58144 1 9.36596 1.32631 10.0186 1.97892C10.6712 2.63154 10.9975 3.41606 10.9975 4.3325C10.9975 5.24894 10.6712 6.03346 10.0186 6.68608C9.36596 7.33869 8.58144 7.665 7.665 7.665Z" fill="#BDBDBD"/>
  </g>
</svg>