<svg width="16" height="16" viewBox="0 0 16 16" fill="none" xmlns="http://www.w3.org/2000/svg">
  <rect width="16" height="16" rx="4" fill="#2D9CDB"/>
  <mask id="mask0_1255_965" style="mask-type:alpha" maskUnits="userSpaceOnUse" x="0" y="0" width="16" height="16">
    <rect width="16" height="16" fill="#1C1B1F"/>
  </mask>
  <g mask="url(#mask0_1255_965)">
    <path d="M9.88571 10.6857L10.6857 9.88572L8.57142 7.77144V5.14286H7.42856V8.22858L9.88571 10.6857ZM7.99999 13.7143C7.20952 13.7143 6.46666 13.5642 5.77142 13.264C5.07618 12.9642 4.47142 12.5572 3.95713 12.0429C3.44285 11.5286 3.0358 10.9238 2.73599 10.2286C2.4358 9.53334 2.28571 8.79048 2.28571 8.00001C2.28571 7.20953 2.4358 6.46667 2.73599 5.77144C3.0358 5.0762 3.44285 4.47144 3.95713 3.95715C4.47142 3.44286 5.07618 3.03563 5.77142 2.73544C6.46666 2.43563 7.20952 2.28572 7.99999 2.28572C8.79047 2.28572 9.53332 2.43563 10.2286 2.73544C10.9238 3.03563 11.5286 3.44286 12.0428 3.95715C12.5571 4.47144 12.9642 5.0762 13.264 5.77144C13.5642 6.46667 13.7143 7.20953 13.7143 8.00001C13.7143 8.79048 13.5642 9.53334 13.264 10.2286C12.9642 10.9238 12.5571 11.5286 12.0428 12.0429C11.5286 12.5572 10.9238 12.9642 10.2286 13.264C9.53332 13.5642 8.79047 13.7143 7.99999 13.7143ZM7.99999 12.5714C9.26666 12.5714 10.3453 12.1263 11.236 11.236C12.1263 10.3453 12.5714 9.26667 12.5714 8.00001C12.5714 6.73334 12.1263 5.65467 11.236 4.76401C10.3453 3.87372 9.26666 3.42858 7.99999 3.42858C6.73332 3.42858 5.65485 3.87372 4.76456 4.76401C3.8739 5.65467 3.42856 6.73334 3.42856 8.00001C3.42856 9.26667 3.8739 10.3453 4.76456 11.236C5.65485 12.1263 6.73332 12.5714 7.99999 12.5714Z" fill="white"/>
  </g>
</svg>