<svg width="368" height="182" viewBox="0 0 368 182" fill="none" xmlns="http://www.w3.org/2000/svg">
<rect width="368" height="182" rx="8" fill="#BEE8FF"/>
<rect width="368" height="100" transform="translate(0 82)" fill="#E5D1FF"/>
<rect x="18" y="126" width="264" height="6.60661" rx="3.3033" fill="#D1ADFF"/>
<rect x="18" y="126" width="91.1876" height="6.60661" rx="3.3033" fill="#9747FF"/>
<path opacity="0.6" d="M108.957 125.375C113.779 125.375 117.688 124.949 117.688 124.424C117.688 123.898 113.779 123.472 108.957 123.472C104.136 123.472 100.227 123.898 100.227 124.424C100.227 124.949 104.136 125.375 108.957 125.375Z" fill="#40A45D"/>
<path d="M113.924 103.018C114.82 102.133 114.82 100.683 113.924 99.7967L113.763 99.6376C113.472 99.3501 113.001 99.3501 112.71 99.6376L111.031 101.297" fill="#A5BFC4"/>
<path d="M113.924 103.018C114.82 102.133 114.82 100.683 113.924 99.7967L113.763 99.6376C113.472 99.3501 113.001 99.3501 112.71 99.6376L111.031 101.297" stroke="black" stroke-miterlimit="10" stroke-linecap="round"/>
<path fill-rule="evenodd" clip-rule="evenodd" d="M98.8691 117.874C96.8571 117.874 95.2112 116.214 95.2112 114.186V108.386C95.2112 106.358 96.8571 104.699 98.8691 104.699C100.881 104.699 102.527 106.358 102.527 108.386V114.186C102.527 116.214 100.881 117.874 98.8691 117.874Z" fill="#FCE47E"/>
<path d="M98.8691 117.874C96.8571 117.874 95.2112 116.214 95.2112 114.186V108.386C95.2112 106.358 96.8571 104.699 98.8691 104.699C100.881 104.699 102.527 106.358 102.527 108.386V114.186C102.527 116.214 100.881 117.874 98.8691 117.874Z" stroke="black"/>
<path fill-rule="evenodd" clip-rule="evenodd" d="M99.9313 117.874C97.9435 117.874 96.1544 118.731 94.9075 120.099C96.1544 121.466 97.9435 122.324 99.9313 122.324C101.919 122.324 103.708 121.466 104.955 120.099C103.708 118.731 101.919 117.874 99.9313 117.874Z" fill="#A5BFC4"/>
<mask id="mask0_827_4819" style="mask-type:alpha" maskUnits="userSpaceOnUse" x="94" y="117" width="9" height="6">
<path fill-rule="evenodd" clip-rule="evenodd" d="M102.617 121.791C101.805 122.134 100.915 122.324 99.9797 122.324C97.9919 122.324 96.2028 121.466 94.956 120.099C96.2028 118.731 97.9919 117.874 99.9797 117.874C100.915 117.874 101.805 118.063 102.617 118.406V121.791Z" fill="white"/>
</mask>
<g mask="url(#mask0_827_4819)">
<path fill-rule="evenodd" clip-rule="evenodd" d="M93.0185 123.475H96.4888V115.686H93.0185V123.475Z" fill="#6C888C"/>
<path fill-rule="evenodd" clip-rule="evenodd" d="M97.6933 123.341H99.4876V115.552H97.6933V123.341Z" fill="#6C888C"/>
<path fill-rule="evenodd" clip-rule="evenodd" d="M100.822 123.341H102.617V115.552H100.822V123.341Z" fill="#6C888C"/>
</g>
<path d="M105.451 120.099L105.665 120.324L105.899 120.099L105.665 119.873L105.451 120.099ZM99.9626 117.561C98.1982 117.561 96.5143 118.116 95.0952 119.165L95.4619 119.669C96.7742 118.699 98.3296 118.186 99.9626 118.186V117.561ZM95.0952 119.165C94.799 119.384 94.6281 119.727 94.6281 120.099H95.2481C95.2481 119.924 95.3259 119.77 95.4619 119.669L95.0952 119.165ZM94.6281 120.099C94.6281 120.47 94.7988 120.812 95.0955 121.032L95.4624 120.528C95.326 120.427 95.2481 120.273 95.2481 120.099H94.6281ZM95.0955 121.032C96.5141 122.081 98.1981 122.636 99.9626 122.636V122.011C98.3296 122.011 96.7744 121.498 95.4624 120.528L95.0955 121.032ZM99.9626 122.636C102.088 122.636 104.137 121.799 105.665 120.324L105.236 119.873C103.823 121.237 101.927 122.011 99.9626 122.011V122.636ZM105.665 119.873C104.137 118.398 102.088 117.561 99.9626 117.561V118.186C101.927 118.186 103.823 118.96 105.236 120.324L105.665 119.873Z" fill="black"/>
<path fill-rule="evenodd" clip-rule="evenodd" d="M116.327 109.345L118.183 109.314C119.26 109.314 120.133 110.194 120.133 111.279C120.133 112.365 119.26 113.244 118.183 113.244H117.436H116.35" fill="#A5BFC4"/>
<path d="M116.327 109.345L118.183 109.314C119.26 109.314 120.133 110.194 120.133 111.279C120.133 112.365 119.26 113.244 118.183 113.244H117.436H116.35" stroke="black"/>
<path fill-rule="evenodd" clip-rule="evenodd" d="M116.604 113.245H112.098L112.279 109.346L116.604 109.314" fill="white"/>
<path fill-rule="evenodd" clip-rule="evenodd" d="M115.566 119.106V121.262C115.566 122.672 114.432 123.815 113.033 123.815C111.635 123.815 110.5 122.672 110.5 121.262V120.283V121.052" fill="#A5BFC4"/>
<path d="M115.566 118.912V121.179C115.566 122.635 114.395 123.815 112.951 123.815C111.507 123.815 110.336 122.635 110.336 121.179V119.536" stroke="black" stroke-linecap="round" stroke-linejoin="round"/>
<path fill-rule="evenodd" clip-rule="evenodd" d="M111.577 116.094C111.133 116.094 110.7 116.044 110.294 115.939C109.769 115.804 109.453 115.265 109.587 114.736C109.72 114.207 110.254 113.888 110.78 114.023C111.912 114.315 113.506 113.904 114.657 113.023C115.457 112.41 115.924 111.663 115.938 110.974C115.959 109.951 113.005 108.557 110.34 107.945C109.812 107.824 109.481 107.295 109.601 106.762C109.721 106.23 110.245 105.896 110.774 106.017C111.975 106.292 117.965 107.824 117.899 111.015C117.872 112.33 117.141 113.602 115.843 114.597C114.586 115.56 113.017 116.094 111.577 116.094Z" fill="#FCE47E"/>
<path d="M111.577 116.094C111.133 116.094 110.7 116.044 110.294 115.939C109.769 115.804 109.453 115.265 109.587 114.736C109.72 114.207 110.254 113.888 110.78 114.023C111.912 114.315 113.506 113.904 114.657 113.023C115.457 112.41 115.924 111.663 115.938 110.974C115.959 109.951 113.005 108.557 110.34 107.945C109.812 107.824 109.481 107.295 109.601 106.762C109.721 106.23 110.245 105.896 110.774 106.017C111.975 106.292 117.965 107.824 117.899 111.015C117.872 112.33 117.141 113.602 115.843 114.597C114.586 115.56 113.017 116.094 111.577 116.094Z" stroke="black"/>
<path fill-rule="evenodd" clip-rule="evenodd" d="M108.664 122.886C112.977 122.886 116.505 119.329 116.505 114.981V107.527C116.505 103.179 112.977 99.6224 108.664 99.6224C104.351 99.6224 100.823 103.179 100.823 107.527V114.981C100.823 119.329 104.351 122.886 108.664 122.886Z" fill="#A5BFC4"/>
<mask id="mask1_827_4819" style="mask-type:alpha" maskUnits="userSpaceOnUse" x="108" y="112" width="7" height="11">
<path fill-rule="evenodd" clip-rule="evenodd" d="M114.503 120.242C113.065 121.862 110.977 122.886 108.664 122.886C108.444 122.886 108.226 122.876 108.01 122.858V112.427H114.503V120.242Z" fill="white"/>
</mask>
<g mask="url(#mask1_827_4819)">
<path fill-rule="evenodd" clip-rule="evenodd" d="M111.257 126.033C113.05 126.033 114.503 124.568 114.503 122.76V115.699C114.503 113.892 113.05 112.427 111.257 112.427C109.464 112.427 108.01 113.892 108.01 115.699V122.76C108.01 124.568 109.464 126.033 111.257 126.033Z" fill="white" fill-opacity="0.24"/>
</g>
<mask id="mask2_827_4819" style="mask-type:alpha" maskUnits="userSpaceOnUse" x="100" y="108" width="17" height="15">
<path fill-rule="evenodd" clip-rule="evenodd" d="M100.843 108.379V114.981C100.843 119.329 104.372 122.886 108.685 122.886C112.998 122.886 116.526 119.329 116.526 114.981V108.379H100.843Z" fill="white"/>
</mask>
<g mask="url(#mask2_827_4819)">
<path fill-rule="evenodd" clip-rule="evenodd" d="M101.015 115.378C101.015 119.525 104.35 122.886 108.463 122.886H109.548C113.661 122.886 116.996 119.525 116.996 115.378H101.015Z" fill="#0BAF17"/>
<path fill-rule="evenodd" clip-rule="evenodd" d="M116.505 115.719H100.54V108.379L109.66 110.383L110.932 113.486C111.021 113.702 111.326 113.702 111.415 113.485L112.688 110.369L116.505 108.379V115.719Z" fill="white"/>
<path fill-rule="evenodd" clip-rule="evenodd" d="M108.375 115.423H106.747V109.521L108.375 109.861V115.423Z" fill="#0BAF17"/>
<path fill-rule="evenodd" clip-rule="evenodd" d="M115.223 115.356H113.595V109.873L115.223 109.038V115.356Z" fill="#0BAF17"/>
</g>
<path d="M100.894 115.632H116.448" stroke="black"/>
<path opacity="0.42" fill-rule="evenodd" clip-rule="evenodd" d="M109.852 104.674C110.319 105.502 110.031 106.555 109.21 107.026C108.682 107.329 107.302 107.302 106.381 107.243C105.95 107.216 105.689 106.753 105.886 106.365C106.307 105.538 106.99 104.328 107.518 104.026C108.34 103.555 109.385 103.845 109.852 104.674Z" fill="white"/>
<path opacity="0.42" fill-rule="evenodd" clip-rule="evenodd" d="M112.255 104.786C112.676 103.933 113.703 103.585 114.55 104.009C115.093 104.281 115.842 105.451 116.308 106.253C116.526 106.629 116.291 107.107 115.862 107.158C114.946 107.267 113.569 107.372 113.026 107.099C112.179 106.675 111.834 105.639 112.255 104.786Z" fill="white"/>
<path fill-rule="evenodd" clip-rule="evenodd" d="M114.923 105.467C114.923 105.89 114.582 106.234 114.162 106.234C113.742 106.234 113.401 105.89 113.401 105.466C113.401 105.042 113.742 104.699 114.163 104.699C114.583 104.699 114.924 105.043 114.923 105.467Z" fill="black"/>
<path fill-rule="evenodd" clip-rule="evenodd" d="M109.86 105.467C109.859 105.89 109.518 106.234 109.098 106.234C108.677 106.234 108.337 105.89 108.337 105.466C108.337 105.042 108.678 104.699 109.098 104.699C109.519 104.699 109.86 105.043 109.86 105.467Z" fill="black"/>
<path d="M108.664 122.886C112.977 122.886 116.505 119.329 116.505 114.981V107.527C116.505 103.18 112.977 99.6228 108.664 99.6228C104.351 99.6228 100.823 103.18 100.823 107.527V114.981C100.823 119.329 104.351 122.886 108.664 122.886Z" stroke="black"/>
<path fill-rule="evenodd" clip-rule="evenodd" d="M101.863 116.095C101.419 116.095 100.987 116.044 100.58 115.939C100.056 115.804 99.7388 115.265 99.8728 114.737C100.006 114.208 100.54 113.889 101.066 114.024C102.198 114.316 103.793 113.904 104.943 113.023C105.743 112.41 106.21 111.663 106.225 110.974C106.245 109.952 103.291 108.557 100.626 107.946C100.098 107.824 99.7676 107.295 99.8875 106.763C100.007 106.23 100.531 105.896 101.061 106.018C102.262 106.293 108.251 107.824 108.185 111.016C108.158 112.33 107.427 113.602 106.129 114.597C104.872 115.56 103.303 116.095 101.863 116.095Z" fill="#FCE47E" stroke="black"/>
<path fill-rule="evenodd" clip-rule="evenodd" d="M111.197 98.5061C110.816 97.3704 109.752 96.5521 108.496 96.5521C107.241 96.5521 106.176 97.3704 105.796 98.5061H111.197Z" fill="#1DCC70" stroke="black"/>
<path fill-rule="evenodd" clip-rule="evenodd" d="M107.689 98.2605C107.422 98.2605 107.204 98.0407 107.204 97.7722V96.3687C107.204 96.0998 107.422 95.8801 107.689 95.8801C107.955 95.8801 108.173 96.0998 108.173 96.3687V97.7722C108.173 98.0407 107.955 98.2605 107.689 98.2605Z" fill="#FD4242"/>
<path fill-rule="evenodd" clip-rule="evenodd" d="M111.958 99.0202C111.958 99.6738 111.428 100.209 110.78 100.209H106.178C105.53 100.209 104.999 99.6738 104.999 99.0202C104.999 98.7335 105.23 98.5009 105.515 98.5009H111.443C111.728 98.5009 111.958 98.7335 111.958 99.0202Z" fill="#0BAF17"/>
<path d="M111.958 99.0202C111.958 99.6738 111.428 100.209 110.78 100.209H106.178C105.53 100.209 104.999 99.6738 104.999 99.0202C104.999 98.7335 105.23 98.5009 105.515 98.5009H111.443C111.728 98.5009 111.958 98.7335 111.958 99.0202Z" stroke="black"/>
<path fill-rule="evenodd" clip-rule="evenodd" d="M107.998 121.262C107.998 122.672 106.864 123.816 105.465 123.816C104.067 123.816 102.933 122.672 102.933 121.262" fill="#0BAF17"/>
<path fill-rule="evenodd" clip-rule="evenodd" d="M107.998 119.872V121.262C107.998 122.673 106.864 123.816 105.465 123.816C104.067 123.816 102.933 122.673 102.933 121.262V120.029" fill="#0BAF17"/>
<path fill-rule="evenodd" clip-rule="evenodd" d="M107.998 121.262C107.998 122.672 106.864 123.816 105.465 123.816C104.067 123.816 102.933 122.672 102.933 121.262" fill="#A5BFC4"/>
<path d="M107.163 111.899L106.68 111.411L105.308 110.028L102.236 112.491L104.407 114.678C105.168 115.446 106.402 115.446 107.163 114.678C107.925 113.911 107.925 112.667 107.163 111.899Z" fill="white"/>
<path fill-rule="evenodd" clip-rule="evenodd" d="M106.68 111.411L107.163 111.899C107.925 112.667 107.925 113.911 107.163 114.679C106.402 115.446 105.168 115.446 104.407 114.679L103.878 114.146" fill="#A5BFC4"/>
<path fill-rule="evenodd" clip-rule="evenodd" d="M120.218 123.816C119.677 123.816 119.237 123.372 119.237 122.827V104.407C119.237 103.862 119.677 103.419 120.218 103.419C120.758 103.419 121.198 103.862 121.198 104.407V105.848C121.328 105.785 121.471 105.752 121.619 105.752C121.881 105.752 122.128 105.855 122.313 106.042C122.498 106.229 122.6 106.477 122.6 106.741C122.6 107.005 122.498 107.253 122.313 107.44L121.198 108.563V122.827C121.198 123.372 120.758 123.816 120.218 123.816Z" fill="#FCE47E"/>
<path d="M120.218 123.816C119.677 123.816 119.237 123.372 119.237 122.827V104.407C119.237 103.862 119.677 103.419 120.218 103.419C120.758 103.419 121.198 103.862 121.198 104.407V105.848C121.328 105.785 121.471 105.752 121.619 105.752C121.881 105.752 122.128 105.855 122.313 106.042C122.498 106.229 122.6 106.477 122.6 106.741C122.6 107.005 122.498 107.253 122.313 107.44L121.198 108.563V122.827C121.198 123.372 120.758 123.816 120.218 123.816Z" stroke="black"/>
<path fill-rule="evenodd" clip-rule="evenodd" d="M110.364 106.762C110.876 106.524 111.471 106.524 111.984 106.762C112.298 106.909 112.365 107.331 112.12 107.579L111.53 108.174C111.333 108.372 111.014 108.372 110.818 108.174L110.227 107.579C109.982 107.331 110.049 106.909 110.364 106.762Z" fill="black"/>
<path fill-rule="evenodd" clip-rule="evenodd" d="M96.0118 115.285C94.6907 115.285 93.62 114.206 93.62 112.874V111.152C93.62 109.82 94.6907 108.741 96.0118 108.741C97.3325 108.741 98.4032 109.82 98.4032 111.152V112.874C98.4032 114.206 97.3325 115.285 96.0118 115.285Z" fill="#FCE47E"/>
<path d="M96.0118 115.285C94.6907 115.285 93.62 114.206 93.62 112.874V111.152C93.62 109.82 94.6907 108.741 96.0118 108.741C97.3325 108.741 98.4032 109.82 98.4032 111.152V112.874C98.4032 114.206 97.3325 115.285 96.0118 115.285Z" stroke="black"/>
<path fill-rule="evenodd" clip-rule="evenodd" d="M99.2255 105.021C99.2255 106.364 98.1453 107.453 96.8128 107.453C95.4803 107.453 94.4001 106.364 94.4001 105.021C94.4001 103.678 95.4803 102.589 96.8128 102.589C98.1453 102.589 99.2255 103.678 99.2255 105.021Z" fill="#FD4242"/>
<path d="M99.2255 105.021C99.2255 106.364 98.1453 107.453 96.8128 107.453C95.4803 107.453 94.4001 106.364 94.4001 105.021C94.4001 103.678 95.4803 102.589 96.8128 102.589C98.1453 102.589 99.2255 103.678 99.2255 105.021Z" stroke="black"/>
<path d="M102.236 112.491L104.406 114.678C105.168 115.446 106.402 115.446 107.163 114.678C107.925 113.911 107.925 112.667 107.163 111.899L106.679 111.411L105.308 110.028" stroke="black" stroke-linecap="round"/>
<path fill-rule="evenodd" clip-rule="evenodd" d="M110.171 112.785C109.984 113.057 109.935 113.456 110.149 113.708C110.248 113.826 110.412 113.901 110.559 113.855C110.725 113.804 110.816 113.626 110.868 113.459C110.979 113.105 111 112.731 111.02 112.361C111.021 112.605 111.022 112.853 111.083 113.09C111.145 113.326 111.274 113.555 111.48 113.685C111.685 113.814 111.974 113.824 112.16 113.666C112.329 113.523 112.38 113.277 112.35 113.058C112.31 112.767 112.069 112.496 111.825 112.335C111.22 111.937 110.556 112.225 110.171 112.785Z" stroke="black" stroke-linecap="round" stroke-linejoin="round"/>
<path d="M109.313 111.997C110.444 112.065 111.595 112.038 112.71 111.917" stroke="black" stroke-linecap="round" stroke-linejoin="round"/>
<path d="M93.62 111.28H98.4982" stroke="black"/>
<path d="M108.163 119.536V121.18C108.163 122.636 106.992 123.816 105.548 123.816C104.104 123.816 102.933 122.636 102.933 121.18V119.536" stroke="black" stroke-linecap="round" stroke-linejoin="round"/>
<path d="M102.955 121.006H108.14" stroke="black"/>
<path d="M111.174 107.643V109.065" stroke="black" stroke-linecap="round"/>
<path d="M109.979 108.816C110.639 109.48 111.708 109.48 112.368 108.816" stroke="black" stroke-linecap="round"/>
<path d="M103.156 103.018C102.26 102.133 102.26 100.683 103.156 99.7967L103.317 99.6376C103.608 99.3501 104.079 99.3501 104.37 99.6376L106.049 101.297" fill="#A5BFC4"/>
<path d="M103.156 103.018C102.26 102.133 102.26 100.683 103.156 99.7967L103.317 99.6376C103.608 99.3501 104.079 99.3501 104.37 99.6376L106.049 101.297" stroke="black" stroke-miterlimit="10" stroke-linecap="round"/>
<path d="M296.991 142.632H294.435L294.421 141.224H296.567C296.946 141.224 297.256 141.176 297.497 141.08C297.739 140.98 297.919 140.836 298.037 140.649C298.16 140.458 298.222 140.226 298.222 139.952C298.222 139.642 298.162 139.392 298.044 139.2C297.93 139.009 297.75 138.87 297.504 138.783C297.262 138.697 296.95 138.653 296.567 138.653H295.146V147H293.095V137.047H296.567C297.146 137.047 297.663 137.102 298.119 137.211C298.579 137.32 298.969 137.487 299.288 137.71C299.607 137.933 299.851 138.216 300.02 138.558C300.188 138.895 300.272 139.296 300.272 139.761C300.272 140.171 300.179 140.549 299.992 140.896C299.81 141.242 299.521 141.524 299.124 141.743C298.732 141.962 298.219 142.083 297.586 142.105L296.991 142.632ZM296.902 147H293.874L294.674 145.4H296.902C297.262 145.4 297.556 145.343 297.784 145.229C298.012 145.111 298.181 144.951 298.29 144.751C298.399 144.55 298.454 144.32 298.454 144.061C298.454 143.769 298.404 143.516 298.304 143.302C298.208 143.088 298.053 142.924 297.839 142.81C297.625 142.691 297.342 142.632 296.991 142.632H295.016L295.029 141.224H297.49L297.962 141.777C298.568 141.768 299.056 141.875 299.425 142.099C299.799 142.317 300.07 142.602 300.238 142.953C300.411 143.304 300.498 143.68 300.498 144.081C300.498 144.719 300.359 145.257 300.081 145.694C299.803 146.127 299.395 146.453 298.857 146.672C298.324 146.891 297.673 147 296.902 147ZM305.317 147.137C304.743 147.137 304.228 147.046 303.772 146.863C303.317 146.676 302.929 146.419 302.61 146.091C302.296 145.763 302.054 145.382 301.886 144.949C301.717 144.512 301.633 144.047 301.633 143.555V143.281C301.633 142.721 301.713 142.208 301.872 141.743C302.032 141.278 302.259 140.875 302.556 140.533C302.856 140.191 303.221 139.929 303.649 139.747C304.078 139.56 304.561 139.467 305.099 139.467C305.623 139.467 306.088 139.553 306.493 139.727C306.899 139.9 307.238 140.146 307.512 140.465C307.79 140.784 307.999 141.167 308.141 141.613C308.282 142.055 308.353 142.548 308.353 143.09V143.91H302.474V142.598H306.418V142.447C306.418 142.174 306.368 141.93 306.268 141.716C306.172 141.497 306.026 141.324 305.83 141.196C305.634 141.069 305.383 141.005 305.078 141.005C304.818 141.005 304.595 141.062 304.408 141.176C304.221 141.29 304.069 141.449 303.95 141.654C303.836 141.859 303.75 142.101 303.69 142.379C303.636 142.652 303.608 142.953 303.608 143.281V143.555C303.608 143.851 303.649 144.124 303.731 144.375C303.818 144.626 303.939 144.842 304.094 145.024C304.253 145.207 304.445 145.348 304.668 145.448C304.896 145.549 305.153 145.599 305.44 145.599C305.796 145.599 306.126 145.53 306.432 145.394C306.742 145.252 307.008 145.04 307.231 144.758L308.188 145.797C308.034 146.02 307.822 146.234 307.553 146.439C307.288 146.645 306.969 146.813 306.596 146.945C306.222 147.073 305.796 147.137 305.317 147.137ZM314.156 139.604H315.94V146.754C315.94 147.428 315.79 148 315.489 148.47C315.193 148.944 314.778 149.301 314.245 149.543C313.712 149.789 313.092 149.912 312.386 149.912C312.076 149.912 311.748 149.871 311.401 149.789C311.06 149.707 310.731 149.579 310.417 149.406C310.107 149.233 309.847 149.014 309.638 148.75L310.506 147.588C310.734 147.852 310.998 148.057 311.299 148.203C311.6 148.354 311.932 148.429 312.297 148.429C312.652 148.429 312.953 148.363 313.199 148.23C313.445 148.103 313.634 147.914 313.767 147.663C313.899 147.417 313.965 147.118 313.965 146.768V141.312L314.156 139.604ZM309.18 143.391V143.247C309.18 142.682 309.248 142.169 309.385 141.709C309.526 141.244 309.724 140.845 309.979 140.513C310.239 140.18 310.554 139.923 310.923 139.74C311.292 139.558 311.709 139.467 312.174 139.467C312.666 139.467 313.078 139.558 313.411 139.74C313.744 139.923 314.017 140.182 314.231 140.52C314.446 140.852 314.612 141.246 314.73 141.702C314.854 142.153 314.949 142.648 315.018 143.186V143.5C314.949 144.015 314.847 144.493 314.71 144.936C314.573 145.378 314.393 145.765 314.17 146.098C313.947 146.426 313.669 146.681 313.336 146.863C313.008 147.046 312.616 147.137 312.16 147.137C311.704 147.137 311.292 147.043 310.923 146.856C310.558 146.67 310.246 146.408 309.986 146.07C309.727 145.733 309.526 145.337 309.385 144.881C309.248 144.425 309.18 143.928 309.18 143.391ZM311.148 143.247V143.391C311.148 143.696 311.178 143.981 311.237 144.245C311.297 144.509 311.388 144.744 311.511 144.949C311.638 145.15 311.796 145.307 311.982 145.421C312.174 145.53 312.399 145.585 312.659 145.585C313.019 145.585 313.313 145.51 313.541 145.359C313.769 145.204 313.94 144.993 314.054 144.724C314.168 144.455 314.234 144.145 314.252 143.794V142.898C314.243 142.611 314.204 142.354 314.136 142.126C314.067 141.894 313.972 141.695 313.849 141.531C313.726 141.367 313.566 141.24 313.37 141.148C313.174 141.057 312.942 141.012 312.673 141.012C312.413 141.012 312.188 141.071 311.996 141.189C311.809 141.303 311.652 141.461 311.524 141.661C311.401 141.862 311.308 142.099 311.244 142.372C311.18 142.641 311.148 142.933 311.148 143.247ZM319.55 139.604V147H317.574V139.604H319.55ZM317.451 137.676C317.451 137.389 317.551 137.152 317.752 136.965C317.952 136.778 318.221 136.685 318.559 136.685C318.891 136.685 319.158 136.778 319.358 136.965C319.563 137.152 319.666 137.389 319.666 137.676C319.666 137.963 319.563 138.2 319.358 138.387C319.158 138.574 318.891 138.667 318.559 138.667C318.221 138.667 317.952 138.574 317.752 138.387C317.551 138.2 317.451 137.963 317.451 137.676ZM323.104 141.183V147H321.136V139.604H322.981L323.104 141.183ZM322.817 143.042H322.284C322.284 142.495 322.355 142.003 322.496 141.565C322.637 141.123 322.836 140.747 323.091 140.438C323.346 140.123 323.649 139.884 324 139.72C324.355 139.551 324.752 139.467 325.189 139.467C325.536 139.467 325.853 139.517 326.14 139.617C326.427 139.717 326.673 139.877 326.878 140.096C327.088 140.314 327.247 140.604 327.356 140.964C327.47 141.324 327.527 141.764 327.527 142.283V147H325.545V142.276C325.545 141.948 325.499 141.693 325.408 141.511C325.317 141.328 325.183 141.201 325.005 141.128C324.832 141.05 324.618 141.012 324.362 141.012C324.098 141.012 323.868 141.064 323.672 141.169C323.48 141.274 323.321 141.42 323.193 141.606C323.07 141.789 322.977 142.003 322.913 142.249C322.849 142.495 322.817 142.759 322.817 143.042ZM330.952 141.183V147H328.983V139.604H330.829L330.952 141.183ZM330.665 143.042H330.132C330.132 142.495 330.202 142.003 330.344 141.565C330.485 141.123 330.683 140.747 330.938 140.438C331.194 140.123 331.497 139.884 331.848 139.72C332.203 139.551 332.6 139.467 333.037 139.467C333.383 139.467 333.7 139.517 333.987 139.617C334.274 139.717 334.521 139.877 334.726 140.096C334.935 140.314 335.095 140.604 335.204 140.964C335.318 141.324 335.375 141.764 335.375 142.283V147H333.393V142.276C333.393 141.948 333.347 141.693 333.256 141.511C333.165 141.328 333.03 141.201 332.853 141.128C332.679 141.05 332.465 141.012 332.21 141.012C331.946 141.012 331.715 141.064 331.52 141.169C331.328 141.274 331.169 141.42 331.041 141.606C330.918 141.789 330.825 142.003 330.761 142.249C330.697 142.495 330.665 142.759 330.665 143.042ZM340.276 147.137C339.702 147.137 339.187 147.046 338.731 146.863C338.276 146.676 337.888 146.419 337.569 146.091C337.255 145.763 337.013 145.382 336.845 144.949C336.676 144.512 336.592 144.047 336.592 143.555V143.281C336.592 142.721 336.672 142.208 336.831 141.743C336.991 141.278 337.218 140.875 337.515 140.533C337.815 140.191 338.18 139.929 338.608 139.747C339.037 139.56 339.52 139.467 340.058 139.467C340.582 139.467 341.047 139.553 341.452 139.727C341.858 139.9 342.197 140.146 342.471 140.465C342.749 140.784 342.958 141.167 343.1 141.613C343.241 142.055 343.312 142.548 343.312 143.09V143.91H337.433V142.598H341.377V142.447C341.377 142.174 341.327 141.93 341.227 141.716C341.131 141.497 340.985 141.324 340.789 141.196C340.593 141.069 340.342 141.005 340.037 141.005C339.777 141.005 339.554 141.062 339.367 141.176C339.18 141.29 339.028 141.449 338.909 141.654C338.795 141.859 338.709 142.101 338.649 142.379C338.595 142.652 338.567 142.953 338.567 143.281V143.555C338.567 143.851 338.608 144.124 338.69 144.375C338.777 144.626 338.898 144.842 339.053 145.024C339.212 145.207 339.404 145.348 339.627 145.448C339.855 145.549 340.112 145.599 340.399 145.599C340.755 145.599 341.085 145.53 341.391 145.394C341.701 145.252 341.967 145.04 342.19 144.758L343.147 145.797C342.993 146.02 342.781 146.234 342.512 146.439C342.247 146.645 341.928 146.813 341.555 146.945C341.181 147.073 340.755 147.137 340.276 147.137ZM346.401 141.217V147H344.433V139.604H346.285L346.401 141.217ZM348.63 139.556L348.596 141.381C348.5 141.367 348.384 141.356 348.247 141.347C348.115 141.333 347.994 141.326 347.885 141.326C347.607 141.326 347.365 141.363 347.16 141.436C346.96 141.504 346.791 141.606 346.654 141.743C346.522 141.88 346.422 142.046 346.354 142.242C346.29 142.438 346.253 142.661 346.244 142.912L345.848 142.789C345.848 142.311 345.896 141.871 345.991 141.47C346.087 141.064 346.226 140.711 346.408 140.41C346.595 140.109 346.823 139.877 347.092 139.713C347.361 139.549 347.668 139.467 348.015 139.467C348.124 139.467 348.236 139.476 348.35 139.494C348.464 139.508 348.557 139.528 348.63 139.556Z" fill="#1C1B1F"/>
<path d="M96 144.02C96 141.258 98.2386 139.02 101 139.02H101.538C103.234 139.02 104.815 138.16 105.736 136.736L107.874 133.431C108.289 132.79 109.24 132.831 109.598 133.506L111.108 136.359C111.975 137.996 113.675 139.02 115.527 139.02H115.775C118.536 139.02 120.775 141.258 120.775 144.02V148.884C120.775 151.646 118.536 153.884 115.775 153.884H101C98.2386 153.884 96 151.646 96 148.884V144.02Z" fill="white"/>
<path d="M101.624 144.953H102.268C102.584 144.953 102.844 144.901 103.049 144.797C103.258 144.689 103.412 144.544 103.513 144.362C103.617 144.177 103.669 143.968 103.669 143.737C103.669 143.464 103.624 143.234 103.533 143.049C103.442 142.863 103.305 142.723 103.123 142.629C102.94 142.534 102.709 142.487 102.429 142.487C102.175 142.487 101.951 142.538 101.755 142.638C101.563 142.736 101.412 142.876 101.301 143.058C101.194 143.241 101.14 143.456 101.14 143.703H100.237C100.237 143.342 100.328 143.013 100.51 142.717C100.693 142.42 100.948 142.184 101.277 142.009C101.609 141.833 101.993 141.745 102.429 141.745C102.859 141.745 103.235 141.821 103.557 141.974C103.879 142.124 104.13 142.349 104.309 142.648C104.488 142.944 104.578 143.314 104.578 143.757C104.578 143.936 104.535 144.128 104.451 144.333C104.369 144.535 104.241 144.723 104.065 144.899C103.892 145.075 103.668 145.22 103.391 145.334C103.114 145.444 102.782 145.5 102.395 145.5H101.624V144.953ZM101.624 145.695V145.153H102.395C102.848 145.153 103.222 145.207 103.518 145.314C103.814 145.422 104.047 145.565 104.216 145.744C104.389 145.923 104.509 146.12 104.578 146.335C104.649 146.546 104.685 146.758 104.685 146.97C104.685 147.302 104.628 147.596 104.514 147.853C104.404 148.11 104.246 148.329 104.041 148.508C103.839 148.687 103.601 148.822 103.328 148.913C103.054 149.004 102.756 149.05 102.434 149.05C102.125 149.05 101.834 149.006 101.56 148.918C101.29 148.83 101.051 148.703 100.842 148.537C100.634 148.368 100.471 148.161 100.354 147.917C100.237 147.669 100.178 147.388 100.178 147.072H101.082C101.082 147.319 101.135 147.536 101.243 147.721C101.353 147.907 101.51 148.052 101.711 148.156C101.917 148.257 102.157 148.307 102.434 148.307C102.711 148.307 102.948 148.26 103.147 148.166C103.349 148.068 103.503 147.922 103.611 147.726C103.722 147.531 103.777 147.285 103.777 146.989C103.777 146.693 103.715 146.45 103.591 146.262C103.468 146.069 103.292 145.928 103.064 145.837C102.839 145.742 102.574 145.695 102.268 145.695H101.624ZM110.393 144.831V145.915C110.393 146.498 110.341 146.989 110.237 147.389C110.133 147.79 109.983 148.112 109.788 148.356C109.592 148.6 109.356 148.778 109.08 148.888C108.806 148.996 108.497 149.05 108.152 149.05C107.878 149.05 107.626 149.015 107.395 148.947C107.164 148.879 106.956 148.77 106.77 148.62C106.588 148.467 106.432 148.268 106.301 148.024C106.171 147.78 106.072 147.484 106.003 147.136C105.935 146.787 105.901 146.38 105.901 145.915V144.831C105.901 144.248 105.953 143.76 106.057 143.366C106.165 142.972 106.316 142.656 106.511 142.419C106.707 142.178 106.941 142.005 107.214 141.901C107.491 141.797 107.8 141.745 108.142 141.745C108.419 141.745 108.673 141.779 108.904 141.847C109.138 141.913 109.347 142.018 109.529 142.165C109.711 142.308 109.866 142.5 109.993 142.741C110.123 142.979 110.222 143.27 110.291 143.615C110.359 143.96 110.393 144.365 110.393 144.831ZM109.485 146.061V144.679C109.485 144.36 109.465 144.081 109.426 143.84C109.39 143.596 109.337 143.387 109.265 143.215C109.194 143.042 109.102 142.902 108.992 142.795C108.884 142.687 108.759 142.609 108.616 142.56C108.476 142.508 108.318 142.482 108.142 142.482C107.927 142.482 107.737 142.523 107.571 142.604C107.405 142.682 107.265 142.808 107.151 142.98C107.04 143.153 106.956 143.379 106.897 143.659C106.838 143.939 106.809 144.279 106.809 144.679V146.061C106.809 146.38 106.827 146.662 106.863 146.906C106.902 147.15 106.959 147.362 107.034 147.541C107.109 147.717 107.2 147.861 107.307 147.975C107.415 148.089 107.538 148.174 107.678 148.229C107.821 148.281 107.979 148.307 108.152 148.307C108.373 148.307 108.567 148.265 108.733 148.18C108.899 148.096 109.037 147.964 109.148 147.785C109.262 147.603 109.347 147.37 109.402 147.087C109.457 146.8 109.485 146.458 109.485 146.061ZM111.477 143.586V143.21C111.477 142.94 111.536 142.694 111.653 142.472C111.77 142.251 111.938 142.074 112.156 141.94C112.374 141.807 112.633 141.74 112.932 141.74C113.238 141.74 113.499 141.807 113.713 141.94C113.932 142.074 114.099 142.251 114.216 142.472C114.334 142.694 114.392 142.94 114.392 143.21V143.586C114.392 143.849 114.334 144.092 114.216 144.313C114.102 144.535 113.936 144.712 113.718 144.846C113.503 144.979 113.245 145.046 112.942 145.046C112.639 145.046 112.377 144.979 112.156 144.846C111.938 144.712 111.77 144.535 111.653 144.313C111.536 144.092 111.477 143.849 111.477 143.586ZM112.156 143.21V143.586C112.156 143.735 112.183 143.877 112.239 144.011C112.297 144.144 112.385 144.253 112.502 144.338C112.62 144.419 112.766 144.46 112.942 144.46C113.118 144.46 113.263 144.419 113.376 144.338C113.49 144.253 113.575 144.144 113.63 144.011C113.686 143.877 113.713 143.735 113.713 143.586V143.21C113.713 143.057 113.684 142.914 113.626 142.78C113.57 142.643 113.484 142.534 113.367 142.453C113.253 142.368 113.108 142.326 112.932 142.326C112.76 142.326 112.615 142.368 112.498 142.453C112.384 142.534 112.297 142.643 112.239 142.78C112.183 142.914 112.156 143.057 112.156 143.21ZM114.939 147.59V147.209C114.939 146.942 114.998 146.698 115.115 146.476C115.232 146.255 115.4 146.078 115.618 145.944C115.836 145.811 116.095 145.744 116.394 145.744C116.7 145.744 116.96 145.811 117.175 145.944C117.393 146.078 117.561 146.255 117.678 146.476C117.795 146.698 117.854 146.942 117.854 147.209V147.59C117.854 147.857 117.795 148.101 117.678 148.322C117.564 148.543 117.398 148.721 117.18 148.854C116.965 148.988 116.707 149.054 116.404 149.054C116.101 149.054 115.841 148.988 115.623 148.854C115.404 148.721 115.235 148.543 115.115 148.322C114.998 148.101 114.939 147.857 114.939 147.59ZM115.618 147.209V147.59C115.618 147.739 115.645 147.883 115.701 148.019C115.759 148.153 115.847 148.262 115.964 148.346C116.082 148.428 116.228 148.469 116.404 148.469C116.58 148.469 116.724 148.428 116.838 148.346C116.956 148.262 117.042 148.153 117.097 148.019C117.153 147.886 117.18 147.743 117.18 147.59V147.209C117.18 147.056 117.151 146.913 117.092 146.779C117.037 146.646 116.951 146.538 116.834 146.457C116.72 146.372 116.573 146.33 116.394 146.33C116.222 146.33 116.077 146.372 115.96 146.457C115.846 146.538 115.759 146.646 115.701 146.779C115.645 146.913 115.618 147.056 115.618 147.209ZM116.619 142.853L113.147 148.41L112.639 148.088L116.111 142.531L116.619 142.853Z" fill="black"/>
<path d="M305.109 96.6008H312.264C313.581 96.6008 314.502 96.4787 314.502 97.775V95.4266C314.502 94.1303 313.581 93.0783 312.264 93.0783H302.724C300.338 93.0783 298.451 95.5734 299.146 98.9491C299.146 98.9491 301.282 109.957 301.432 110.641C301.829 112.452 303.965 114.213 306.251 114.213H314.549C315.867 114.213 314.502 111.987 314.502 110.691V108.342C314.502 109.639 313.581 110.691 312.264 110.691H307.494C306.177 110.691 305.308 109.467 305.109 108.342C304.91 107.218 303.22 99.7323 303.22 99.7323C302.823 97.4814 303.791 96.6008 305.109 96.6008ZM335.891 96.6008H328.736C327.419 96.6008 325.235 96.4787 325.235 97.775V95.4266C325.235 94.1303 327.419 93.0783 328.736 93.0783H338.276C340.661 93.0783 342.55 95.5734 341.854 98.9491C341.854 98.9491 339.906 110.009 339.742 110.691C339.32 112.452 337.307 114.213 334.971 114.213H326.449C325.133 114.213 325.235 111.987 325.235 110.691V108.342C325.235 109.639 327.419 110.691 328.736 110.691H333.506C334.822 110.691 335.693 109.467 335.891 108.342C336.089 107.218 337.78 99.7323 337.78 99.7323C338.176 97.4814 337.209 96.6008 335.891 96.6008ZM323.843 116.562C323.843 108.392 320.612 116.562 320.612 116.562C320.612 116.562 317.034 108.392 317.034 116.562C317.034 124.732 313.11 128.303 313.11 128.303H327.768C327.768 128.303 323.843 124.732 323.843 116.562Z" fill="#82ACF5"/>
<path d="M331.198 129.477C331.198 130.774 331.469 131.826 330.152 131.826H311.071C309.754 131.826 309.732 130.774 309.732 129.477V128.303C309.732 127.007 311.12 125.955 312.363 125.955H328.96C330.202 125.955 331.198 127.007 331.198 128.303V129.477Z" fill="#828282"/>
<path d="M333.583 131.386C333.583 132.278 333.78 133 332.09 133H309.134C307.593 133 307.347 132.278 307.347 131.386V131.092C307.347 130.2 308.227 129.477 309.134 129.477H332.09C332.995 129.477 333.583 130.2 333.583 131.092V131.386Z" fill="#828282"/>
<path fill-rule="evenodd" clip-rule="evenodd" d="M320.612 119.813C325.656 119.813 333.73 106.407 333.73 98.4524C333.73 91.8031 332.438 90.9988 328.96 91L320.612 91.0012C319.328 91.0012 317.095 91.0106 315.064 91.0192C313.37 91.0263 311.817 91.0329 311.071 91.0329C308.686 91.0329 307.494 92.3526 307.494 98.4524C307.494 106.407 315.566 119.813 320.612 119.813ZM320.096 98.4524L318.245 100.474L317.034 101.568H318.986L320.096 100.474V108.491H321.946V98.4524H320.096Z" fill="#2D9CDB"/>
<path d="M224 57.587C224 57.587 224.532 55.9331 225.785 54.8955C230.063 51.3543 237.326 53.8863 240.805 58.2152C240.926 58.3662 241.029 58.5104 241.111 58.6458C241.918 59.9826 243.147 64.3522 242.292 66.7379C240.253 72.4201 234.964 71.763 233.586 71.4391C232.938 71.2873 231.361 70.8545 231.361 70.8545C231.361 70.8545 227.758 73.9358 223.422 71.5727C220.122 69.7738 220.531 67.0845 220.531 67.0845C220.531 67.0845 218.308 64.7826 219.271 61.5768C220.43 57.7162 224 57.587 224 57.587Z" fill="#BA68C8"/>
<path d="M225.538 68.0791C225.538 68.0791 226.26 68.0361 226.557 67.9477C226.855 67.8594 227.257 67.5966 227.257 67.5966C227.257 67.5966 230.046 70.6189 230.335 70.8727C230.617 71.1196 230.95 67.3541 230.95 67.3541C230.95 67.3541 231.586 67.4561 232.181 67.3587C232.964 67.2295 233.498 66.9713 233.498 66.9713C233.498 66.9713 233.118 69.289 232.969 70.168C232.875 70.7322 232.842 72.3 232.842 72.3L230.803 74.0581L229.252 72.9797C229.252 72.9797 229.248 72.556 229.018 72.2683C228.305 71.3756 225.538 68.0791 225.538 68.0791ZM232.649 73.247L234.2 71.3122C234.2 71.3122 234.752 71.3552 235.156 71.3552C235.559 71.3552 236.261 71.2669 236.261 71.2669C236.261 71.2669 234.988 73.0477 234.308 73.9267C233.627 74.8058 232.737 75.9069 232.737 75.9069L231.888 73.3558L232.649 73.247Z" fill="#6D4B41"/>
<path d="M231.547 71.7064C230.913 71.7653 229.254 72.982 229.254 72.982C229.254 72.982 229.34 75.0482 229.276 76.215C229.213 77.3818 228.769 79.2872 229.178 79.7698C229.532 80.1866 232.512 80.2659 232.956 79.7811C233.402 79.2963 232.969 77.2934 232.969 75.9952C232.969 74.697 232.842 72.3 232.842 72.3C232.842 72.3 232.269 71.6407 231.547 71.7064Z" fill="#865B50"/>
<path d="M107.559 33.0275H107.558C107.558 33.0144 107.559 33.0013 107.559 32.9881C107.559 31.1975 106.108 29.7444 104.316 29.7444C104.085 29.7444 103.86 29.7688 103.644 29.8156C103.001 28.2519 101.466 27.1494 99.6694 27.1494C98.3213 27.1494 97.1194 27.7719 96.3319 28.7431C95.8091 28.4773 95.2309 28.3385 94.6444 28.3381C92.7038 28.3381 91.11 29.8156 90.9244 31.7075C88.815 31.82 87.1219 33.5488 87.0938 35.6956C87.0638 37.9306 88.8544 39.7681 91.0894 39.7963C91.2638 39.7981 91.4325 39.7869 91.6013 39.7663C92.4656 41.5888 94.32 42.8488 96.4706 42.8488C97.7681 42.8488 98.9569 42.3894 99.8869 41.6263C100.598 42.1531 101.475 42.4681 102.428 42.4681C104.381 42.4681 106.026 41.1575 106.538 39.3669C106.86 39.4738 107.203 39.5338 107.561 39.5338C109.358 39.5338 110.814 38.0769 110.814 36.2806C110.813 34.4844 109.358 33.0275 107.559 33.0275Z" fill="#E3EBEE"/>
<path d="M109.472 33.6481C110.209 34.3925 109.688 36.0988 109.181 36.6556C108.184 37.7488 106.354 37.4937 105.619 37.3362C105.42 37.2931 105.388 37.3081 105.323 37.3475C105.264 37.3831 105.238 37.4394 105.174 37.5725C104.938 38.0825 104.327 39.0706 103.037 39.4681C101.693 39.8825 100.425 39.2506 99.8325 38.8738C99.6075 38.7313 99.5981 38.7275 99.4969 38.7294C99.3938 38.7312 99.2925 38.8062 99.1706 38.9019C98.6344 39.3237 97.41 40.0681 95.5219 39.9594C93.6713 39.8525 92.6119 38.7125 92.2481 38.1256C92.1788 38.0131 92.1038 37.9194 92.0175 37.91C91.9181 37.9006 91.8075 38.0019 91.725 38.0844C90.9375 38.8512 88.4588 39.0819 87.6375 37.775C88.4738 39.1156 89.7656 39.7794 91.0913 39.7963C91.2656 39.7981 91.4344 39.7869 91.6031 39.7662C92.4675 41.5887 94.3219 42.8488 96.4725 42.8488C97.77 42.8488 98.9588 42.3894 99.8888 41.6262C100.599 42.1531 101.477 42.4681 102.429 42.4681C104.383 42.4681 106.028 41.1575 106.539 39.3669C106.862 39.4738 107.205 39.5338 107.563 39.5338C109.359 39.5338 110.816 38.0769 110.816 36.2806C110.813 35.3244 110.333 34.2444 109.472 33.6481Z" fill="#B9CDD2"/>
<path d="M223.42 46.1028H223.418C223.418 46.0935 223.42 46.0842 223.42 46.0749C223.42 44.8066 222.331 43.7773 220.987 43.7773C220.814 43.7773 220.645 43.7945 220.483 43.8277C220.001 42.7201 218.849 41.9391 217.502 41.9391C216.491 41.9391 215.59 42.3801 214.999 43.068C214.607 42.8797 214.173 42.7814 213.733 42.7812C212.278 42.7812 211.083 43.8277 210.943 45.1678C209.361 45.2475 208.091 46.472 208.07 47.9927C208.048 49.5759 209.391 50.8774 211.067 50.8973C211.198 50.8987 211.324 50.8907 211.451 50.8761C212.099 52.167 213.49 53.0595 215.103 53.0595C216.076 53.0595 216.968 52.7341 217.665 52.1936C218.198 52.5668 218.856 52.7899 219.571 52.7899C221.036 52.7899 222.269 51.8616 222.653 50.5932C222.895 50.6689 223.152 50.7114 223.421 50.7114C224.768 50.7114 225.861 49.6795 225.861 48.4071C225.859 47.1348 224.768 46.1028 223.42 46.1028Z" fill="#E3EBEE"/>
<path d="M224.854 46.5424C225.407 47.0697 225.016 48.2783 224.636 48.6727C223.888 49.447 222.515 49.2664 221.964 49.1548C221.815 49.1243 221.791 49.1349 221.742 49.1628C221.698 49.188 221.679 49.2279 221.631 49.3222C221.454 49.6834 220.995 50.3834 220.028 50.6649C219.019 50.9584 218.069 50.5109 217.624 50.2439C217.456 50.143 217.449 50.1403 217.373 50.1416C217.295 50.143 217.219 50.1961 217.128 50.2638C216.726 50.5627 215.807 51.0899 214.391 51.0129C213.003 50.9372 212.209 50.1297 211.936 49.714C211.884 49.6343 211.828 49.5679 211.763 49.5613C211.689 49.5546 211.606 49.6263 211.544 49.6848C210.953 50.228 209.094 50.3913 208.478 49.4656C209.105 50.4152 210.074 50.8854 211.068 50.8973C211.199 50.8987 211.326 50.8907 211.452 50.8761C212.101 52.167 213.491 53.0595 215.104 53.0595C216.077 53.0595 216.969 52.7341 217.667 52.1936C218.2 52.5668 218.858 52.7899 219.572 52.7899C221.037 52.7899 222.271 51.8616 222.655 50.5932C222.896 50.6689 223.154 50.7114 223.422 50.7114C224.77 50.7114 225.862 49.6795 225.862 48.4071C225.859 47.7298 225.499 46.9648 224.854 46.5424Z" fill="#B9CDD2"/>
<path d="M107.25 56.3209C107.25 56.3209 107.952 54.1537 109.609 52.7941C115.28 48.1383 124.879 51.4478 129.475 57.1678C129.627 57.3571 129.757 57.5379 129.861 57.7083C130.928 59.4599 132.552 65.1856 131.421 68.3117C128.727 75.7573 121.738 74.8964 119.917 74.4719C119.061 74.273 116.977 73.7059 116.977 73.7059C116.977 73.7059 112.216 77.7434 106.487 74.647C102.125 72.2898 102.665 68.7659 102.665 68.7659C102.665 68.7659 99.7286 65.7497 101 61.5489C102.532 56.4901 107.25 56.3209 107.25 56.3209Z" fill="#BA68C8"/>
<path d="M109.282 70.0692C109.282 70.0692 110.236 70.0128 110.629 69.897C111.022 69.7812 111.554 69.4369 111.554 69.4369C111.554 69.4369 115.24 73.3972 115.621 73.7297C115.994 74.0533 116.434 69.1192 116.434 69.1192C116.434 69.1192 117.275 69.2528 118.061 69.1252C119.096 68.9559 119.801 68.6175 119.801 68.6175C119.801 68.6175 119.298 71.6545 119.102 72.8064C118.977 73.5456 118.934 75.6 118.934 75.6L116.24 77.9037L114.19 76.4906C114.19 76.4906 114.185 75.9355 113.881 75.5584C112.939 74.3887 109.282 70.0692 109.282 70.0692ZM118.68 76.8409L120.729 74.3056C120.729 74.3056 121.457 74.362 121.992 74.362C122.524 74.362 123.452 74.2463 123.452 74.2463C123.452 74.2463 121.77 76.5797 120.871 77.7316C119.972 78.8834 118.795 80.3262 118.795 80.3262L117.674 76.9834L118.68 76.8409Z" fill="#6D4B41"/>
<path d="M117.223 74.8222C116.384 74.8994 114.193 76.4936 114.193 76.4936C114.193 76.4936 114.306 79.2011 114.222 80.73C114.138 82.2589 113.552 84.7556 114.092 85.388C114.56 85.9342 118.497 86.0381 119.084 85.4028C119.674 84.7675 119.102 82.1431 119.102 80.442C119.102 78.7409 118.934 75.6 118.934 75.6C118.934 75.6 118.177 74.7361 117.223 74.8222Z" fill="#865B50"/>
<path d="M201 68.587C201 68.587 201.532 66.9331 202.785 65.8955C207.063 62.3543 214.326 64.8863 217.805 69.2152C217.926 69.3662 218.029 69.5104 218.111 69.6458C218.918 70.9826 220.147 75.3522 219.292 77.7379C217.253 83.4201 211.964 82.763 210.586 82.4391C209.938 82.2873 208.361 81.8545 208.361 81.8545C208.361 81.8545 204.758 84.9358 200.423 82.5727C197.122 80.7738 197.531 78.0845 197.531 78.0845C197.531 78.0845 195.308 75.7826 196.271 72.5768C197.43 68.7162 201 68.587 201 68.587Z" fill="#BA68C8"/>
<path d="M202.538 79.0791C202.538 79.0791 203.26 79.0361 203.557 78.9477C203.855 78.8594 204.257 78.5966 204.257 78.5966C204.257 78.5966 207.046 81.6189 207.335 81.8727C207.617 82.1196 207.95 78.3541 207.95 78.3541C207.95 78.3541 208.586 78.4561 209.181 78.3587C209.964 78.2295 210.498 77.9712 210.498 77.9712C210.498 77.9712 210.117 80.289 209.969 81.168C209.875 81.7322 209.842 83.3 209.842 83.3L207.803 85.0581L206.252 83.9797C206.252 83.9797 206.248 83.556 206.018 83.2683C205.305 82.3756 202.538 79.0791 202.538 79.0791ZM209.649 84.247L211.2 82.3122C211.2 82.3122 211.752 82.3552 212.156 82.3552C212.559 82.3552 213.261 82.2669 213.261 82.2669C213.261 82.2669 211.988 84.0477 211.307 84.9267C210.627 85.8058 209.737 86.9069 209.737 86.9069L208.888 84.3558L209.649 84.247Z" fill="#6D4B41"/>
<path d="M208.547 82.7064C207.913 82.7653 206.254 83.982 206.254 83.982C206.254 83.982 206.34 86.0482 206.276 87.215C206.213 88.3818 205.769 90.2872 206.178 90.7698C206.532 91.1866 209.512 91.2659 209.956 90.7811C210.402 90.2963 209.969 88.2934 209.969 86.9952C209.969 85.697 209.842 83.3 209.842 83.3C209.842 83.3 209.269 82.6407 208.547 82.7064Z" fill="#865B50"/>
<path d="M66.25 64.3944C66.25 64.3944 66.8005 62.7975 68.0987 61.7956C72.6501 58.2832 80.2018 60.6526 83.7803 65.1521C83.8529 65.2435 83.9172 65.3319 83.9722 65.4167C84.8082 66.7073 86.081 70.9262 85.1952 73.2297C83.0836 78.7159 77.6053 78.0816 76.178 77.7687C75.5073 77.6222 73.8738 77.2044 73.8738 77.2044C73.8738 77.2044 70.1423 80.1794 65.6519 77.8978C62.233 76.1609 62.6567 73.5644 62.6567 73.5644C62.6567 73.5644 60.3548 71.3419 61.3517 68.2466C62.5525 64.5191 66.25 64.3944 66.25 64.3944Z" fill="#BA68C8"/>
<path d="M67.8427 74.5247C67.8427 74.5247 68.5904 74.4831 68.8985 74.3978C69.2066 74.3125 69.6235 74.0587 69.6235 74.0587C69.6235 74.0587 72.5122 76.9769 72.8113 77.2219C73.1035 77.4603 73.4479 73.8247 73.4479 73.8247C73.4479 73.8247 74.1072 73.9231 74.7234 73.8291C75.5345 73.7044 76.0874 73.455 76.0874 73.455C76.0874 73.455 75.6931 75.6928 75.5391 76.5416C75.4416 77.0863 75.4077 78.6 75.4077 78.6L73.2961 80.2975L71.6898 79.2562C71.6898 79.2562 71.6852 78.8472 71.4474 78.5694C70.7088 77.7075 67.8427 74.5247 67.8427 74.5247ZM75.2083 79.5144L76.8146 77.6462C76.8146 77.6462 77.3856 77.6878 77.8047 77.6878C78.2216 77.6878 78.9488 77.6025 78.9488 77.6025C78.9488 77.6025 77.6302 79.3219 76.9256 80.1706C76.221 81.0194 75.2989 82.0825 75.2989 82.0825L74.4199 79.6194L75.2083 79.5144Z" fill="#6D4B41"/>
<path d="M74.0664 78.0269C73.4094 78.0838 71.692 79.2584 71.692 79.2584C71.692 79.2584 71.7804 81.2534 71.7147 82.38C71.649 83.5066 71.1891 85.3463 71.6127 85.8122C71.9798 86.2147 75.0656 86.2913 75.5255 85.8231C75.9877 85.355 75.5391 83.4213 75.5391 82.1678C75.5391 80.9144 75.4077 78.6 75.4077 78.6C75.4077 78.6 74.8141 77.9634 74.0664 78.0269Z" fill="#865B50"/>
</svg>
