<svg width="16" height="16" viewBox="0 0 16 16" fill="none" xmlns="http://www.w3.org/2000/svg">
  <rect width="16" height="16" rx="8" fill="#2D9CDB"/>
  <mask id="mask0_1255_40" style="mask-type:alpha" maskUnits="userSpaceOnUse" x="0" y="0" width="16" height="16">
    <rect width="16" height="16" fill="#1C1B1F"/>
  </mask>
  <g mask="url(#mask0_1255_40)">
    <path d="M6.28571 4.57143H7.42857V3.42857H6.28571V4.57143ZM8.57143 4.57143V3.42857H9.71429V4.57143H8.57143ZM6.28571 9.14286V8H7.42857V9.14286H6.28571ZM10.8571 6.85714V5.71429H12V6.85714H10.8571ZM10.8571 9.14286V8H12V9.14286H10.8571ZM8.57143 9.14286V8H9.71429V9.14286H8.57143ZM10.8571 4.57143V3.42857H12V4.57143H10.8571ZM7.42857 5.71429V4.57143H8.57143V5.71429H7.42857ZM4 12.5714V3.42857H5.14286V4.57143H6.28571V5.71429H5.14286V6.85714H6.28571V8H5.14286V12.5714H4ZM9.71429 8V6.85714H10.8571V8H9.71429ZM7.42857 8V6.85714H8.57143V8H7.42857ZM6.28571 6.85714V5.71429H7.42857V6.85714H6.28571ZM8.57143 6.85714V5.71429H9.71429V6.85714H8.57143ZM9.71429 5.71429V4.57143H10.8571V5.71429H9.71429Z" fill="white"/>
  </g>
</svg>