<svg width="28" height="28" viewBox="0 0 28 28" fill="none" xmlns="http://www.w3.org/2000/svg">
  <mask id="mask0_327_4275" style="mask-type:alpha" maskUnits="userSpaceOnUse" x="0" y="0" width="28" height="28">
    <rect width="28" height="28" fill="#1C1B1F"/>
  </mask>
  <g mask="url(#mask0_327_4275)">
    <path d="M14 17C13.45 17 12.9793 16.804 12.588 16.412C12.196 16.0207 12 15.55 12 15C12 14.45 12.196 13.979 12.588 13.587C12.9793 13.1957 13.45 13 14 13C14.55 13 15.021 13.1957 15.413 13.587C15.8043 13.979 16 14.45 16 15C16 15.55 15.8043 16.0207 15.413 16.412C15.021 16.804 14.55 17 14 17ZM9.925 19.425C9.34167 18.875 8.875 18.221 8.525 17.463C8.175 16.7043 8 15.8833 8 15C8 13.3333 8.58333 11.9167 9.75 10.75C10.9167 9.58333 12.3333 9 14 9C15.6667 9 17.0833 9.58333 18.25 10.75C19.4167 11.9167 20 13.3333 20 15C20 15.8833 19.825 16.7083 19.475 17.475C19.125 18.2417 18.6583 18.8917 18.075 19.425L16.65 18C17.0667 17.6167 17.3957 17.1667 17.637 16.65C17.879 16.1333 18 15.5833 18 15C18 13.9 17.6083 12.9583 16.825 12.175C16.0417 11.3917 15.1 11 14 11C12.9 11 11.9583 11.3917 11.175 12.175C10.3917 12.9583 10 13.9 10 15C10 15.6 10.121 16.154 10.363 16.662C10.6043 17.1707 10.9333 17.6167 11.35 18L9.925 19.425ZM7.1 22.25C6.15 21.3333 5.396 20.254 4.838 19.012C4.27933 17.7707 4 16.4333 4 15C4 13.6167 4.26267 12.3167 4.788 11.1C5.31267 9.88333 6.025 8.825 6.925 7.925C7.825 7.025 8.88333 6.31233 10.1 5.787C11.3167 5.26233 12.6167 5 14 5C15.3833 5 16.6833 5.26233 17.9 5.787C19.1167 6.31233 20.175 7.025 21.075 7.925C21.975 8.825 22.6873 9.88333 23.212 11.1C23.7373 12.3167 24 13.6167 24 15C24 16.4333 23.721 17.775 23.163 19.025C22.6043 20.275 21.85 21.35 20.9 22.25L19.5 20.85C20.2667 20.1167 20.875 19.246 21.325 18.238C21.775 17.2293 22 16.15 22 15C22 12.7667 21.225 10.875 19.675 9.325C18.125 7.775 16.2333 7 14 7C11.7667 7 9.875 7.775 8.325 9.325C6.775 10.875 6 12.7667 6 15C6 16.15 6.225 17.225 6.675 18.225C7.125 19.225 7.74167 20.0917 8.525 20.825L7.1 22.25Z" fill="#141A2F"/>
    <path d="M12.588 16.412C12.9793 16.804 13.45 17 14 17C14.55 17 15.021 16.804 15.413 16.412C15.8043 16.0207 16 15.55 16 15C16 14.45 15.8043 13.979 15.413 13.587C15.021 13.1957 14.55 13 14 13C13.45 13 12.9793 13.1957 12.588 13.587C12.196 13.979 12 14.45 12 15C12 15.55 12.196 16.0207 12.588 16.412Z" fill="#EB5757"/>
  </g>
</svg>