<svg width="28" height="28" viewBox="0 0 28 28" fill="none" xmlns="http://www.w3.org/2000/svg">
  <mask id="mask0_1255_1072" style="mask-type:alpha" maskUnits="userSpaceOnUse" x="0" y="0" width="28" height="28">
    <rect width="28" height="28" fill="#1C1B1F"/>
  </mask>
  <g mask="url(#mask0_1255_1072)">
    <path d="M14.25 24C13.8167 24 13.425 23.896 13.075 23.688C12.725 23.4793 12.45 23.2 12.25 22.85C11.7 22.85 11.2293 22.6543 10.838 22.263C10.446 21.871 10.25 21.4 10.25 20.85V17.3C9.26667 16.65 8.47933 15.7917 7.888 14.725C7.296 13.6583 7 12.5 7 11.25C7 9.23333 7.704 7.52067 9.112 6.112C10.5207 4.704 12.2333 4 14.25 4C16.2667 4 17.979 4.704 19.387 6.112C20.7957 7.52067 21.5 9.23333 21.5 11.25C21.5 12.5333 21.2043 13.7 20.613 14.75C20.021 15.8 19.2333 16.65 18.25 17.3V20.85C18.25 21.4 18.0543 21.871 17.663 22.263C17.271 22.6543 16.8 22.85 16.25 22.85C16.05 23.2 15.775 23.4793 15.425 23.688C15.075 23.896 14.6833 24 14.25 24ZM12.25 20.85H16.25V19.95H12.25V20.85ZM12.25 18.95H16.25V18H12.25V18.95ZM12.05 16H13.5V13.3L11.3 11.1L12.35 10.05L14.25 11.95L16.15 10.05L17.2 11.1L15 13.3V16H16.45C17.35 15.5667 18.0833 14.929 18.65 14.087C19.2167 13.2457 19.5 12.3 19.5 11.25C19.5 9.78333 18.9917 8.54167 17.975 7.525C16.9583 6.50833 15.7167 6 14.25 6C12.7833 6 11.5417 6.50833 10.525 7.525C9.50833 8.54167 9 9.78333 9 11.25C9 12.3 9.28333 13.2457 9.85 14.087C10.4167 14.929 11.15 15.5667 12.05 16Z" fill="white"/>
  </g>
</svg>